<svg xmlns="http://www.w3.org/2000/svg" xmlns:xlink="http://www.w3.org/1999/xlink" width="478pt" height="407pt" viewBox="0.00 0.00 478.00 407.00">
<g id="graph0" class="graph" transform="scale(1 1) rotate(0) translate(4 403.2)">
<title>MCP_Weather_Architecture</title>
<polygon fill="white" stroke="none" points="-4,4 -4,-403.2 474,-403.2 474,4 -4,4"/>
<g id="clust1" class="cluster">
<title>cluster_client</title>
<path fill="none" stroke="#888888" stroke-dasharray="5,2" d="M56,-229.2C56,-229.2 450,-229.2 450,-229.2 456,-229.2 462,-235.2 462,-241.2 462,-241.2 462,-379.2 462,-379.2 462,-385.2 456,-391.2 450,-391.2 450,-391.2 56,-391.2 56,-391.2 50,-391.2 44,-385.2 44,-379.2 44,-379.2 44,-241.2 44,-241.2 44,-235.2 50,-229.2 56,-229.2"/>
<text xml:space="preserve" text-anchor="middle" x="253" y="-374.6" font-family="Helvetica,sans-Serif" font-size="14.00">Client</text>
</g>
<g id="clust2" class="cluster">
<title>cluster_backend</title>
<path fill="none" stroke="#888888" stroke-dasharray="5,2" d="M20,-8C20,-8 237,-8 237,-8 243,-8 249,-14 249,-20 249,-20 249,-172.8 249,-172.8 249,-178.8 243,-184.8 237,-184.8 237,-184.8 20,-184.8 20,-184.8 14,-184.8 8,-178.8 8,-172.8 8,-172.8 8,-20 8,-20 8,-14 14,-8 20,-8"/>
<text xml:space="preserve" text-anchor="middle" x="128.5" y="-168.2" font-family="Helvetica,sans-Serif" font-size="14.00">Backend</text>
</g>
<!-- user -->
<g id="node1" class="node">
<title>user</title>
<path fill="#ffee99" stroke="black" d="M211,-358.4C211,-358.4 181,-358.4 181,-358.4 175,-358.4 169,-352.4 169,-346.4 169,-346.4 169,-334.4 169,-334.4 169,-328.4 175,-322.4 181,-322.4 181,-322.4 211,-322.4 211,-322.4 217,-322.4 223,-328.4 223,-334.4 223,-334.4 223,-346.4 223,-346.4 223,-352.4 217,-358.4 211,-358.4"/>
<text xml:space="preserve" text-anchor="middle" x="196" y="-336.8" font-family="Helvetica,sans-Serif" font-size="12.00">User</text>
</g>
<!-- claude -->
<g id="node2" class="node">
<title>claude</title>
<path fill="#c9b6ff" stroke="black" d="M217.69,-273.2C217.69,-273.2 140.31,-273.2 140.31,-273.2 134.31,-273.2 128.31,-267.2 128.31,-261.2 128.31,-261.2 128.31,-249.2 128.31,-249.2 128.31,-243.2 134.31,-237.2 140.31,-237.2 140.31,-237.2 217.69,-237.2 217.69,-237.2 223.69,-237.2 229.69,-243.2 229.69,-249.2 229.69,-249.2 229.69,-261.2 229.69,-261.2 229.69,-267.2 223.69,-273.2 217.69,-273.2"/>
<text xml:space="preserve" text-anchor="middle" x="179" y="-251.6" font-family="Helvetica,sans-Serif" font-size="12.00">Claude Desktop</text>
</g>
<!-- user&#45;&gt;claude -->
<g id="edge1" class="edge">
<title>user-&gt;claude</title>
<path fill="none" stroke="black" d="M168.61,-335.59C135.6,-330.37 83.09,-319.85 71.39,-304.4 54.95,-282.71 84.62,-270.54 116.93,-263.87"/>
<polygon fill="black" stroke="black" points="117.26,-267.37 126.44,-262.08 115.97,-260.48 117.26,-267.37"/>
<text xml:space="preserve" text-anchor="middle" x="181.19" y="-294.5" font-family="Helvetica,sans-Serif" font-size="11.00">1. Ask: "What's the weather in Toronto, ON?"</text>
</g>
<!-- claude&#45;&gt;user -->
<g id="edge6" class="edge">
<title>claude-&gt;user</title>
<path fill="none" stroke="black" d="M230,-259.02C252.48,-263.11 276.94,-272.08 291,-291.2 308.37,-314.83 267.77,-327.68 234.35,-334.04"/>
<polygon fill="black" stroke="black" points="234.13,-330.52 224.88,-335.69 235.33,-337.42 234.13,-330.52"/>
<text xml:space="preserve" text-anchor="middle" x="365.48" y="-294.5" font-family="Helvetica,sans-Serif" font-size="11.00">6. Natural‑language answer</text>
</g>
<!-- mcp_server -->
<g id="node3" class="node">
<title>mcp_server</title>
<path fill="#b2f2bb" stroke="black" d="M109.35,-152C109.35,-152 50.65,-152 50.65,-152 44.65,-152 38.65,-146 38.65,-140 38.65,-140 38.65,-127.2 38.65,-127.2 38.65,-121.2 44.65,-115.2 50.65,-115.2 50.65,-115.2 109.35,-115.2 109.35,-115.2 115.35,-115.2 121.35,-121.2 121.35,-127.2 121.35,-127.2 121.35,-140 121.35,-140 121.35,-146 115.35,-152 109.35,-152"/>
<text xml:space="preserve" text-anchor="middle" x="80" y="-137.2" font-family="Helvetica,sans-Serif" font-size="12.00">MCP Server</text>
<text xml:space="preserve" text-anchor="middle" x="80" y="-122.8" font-family="Helvetica,sans-Serif" font-size="12.00">(weather.py)</text>
</g>
<!-- claude&#45;&gt;mcp_server -->
<g id="edge2" class="edge">
<title>claude-&gt;mcp_server</title>
<path fill="none" stroke="black" d="M128.01,-247.65C93.92,-242.1 53.45,-232.84 42.87,-219.2 29.39,-201.82 41,-178.79 54.69,-161.15"/>
<polygon fill="black" stroke="black" points="57.24,-163.56 60.95,-153.64 51.86,-159.08 57.24,-163.56"/>
<text xml:space="preserve" text-anchor="middle" x="118.93" y="-209.3" font-family="Helvetica,sans-Serif" font-size="11.00">2. MCP tool call</text>
<text xml:space="preserve" text-anchor="middle" x="118.93" y="-196.1" font-family="Helvetica,sans-Serif" font-size="11.00">get_canada_weather("toronto")</text>
</g>
<!-- mcp_server&#45;&gt;claude -->
<g id="edge5" class="edge">
<title>mcp_server-&gt;claude</title>
<path fill="none" stroke="black" d="M121.61,-143.89C147.6,-152.07 179.06,-166.87 195,-192.8 201.19,-202.86 199.38,-215.27 195.19,-226.29"/>
<polygon fill="black" stroke="black" points="192.03,-224.79 191.05,-235.34 198.4,-227.71 192.03,-224.79"/>
<text xml:space="preserve" text-anchor="middle" x="248.52" y="-202.7" font-family="Helvetica,sans-Serif" font-size="11.00">5. MCP JSON result</text>
</g>
<!-- weather_api -->
<g id="node4" class="node">
<title>weather_api</title>
<path fill="#a5d8ff" stroke="black" d="M182.69,-52.8C182.69,-52.8 49.31,-52.8 49.31,-52.8 43.31,-52.8 37.31,-46.8 37.31,-40.8 37.31,-40.8 37.31,-28 37.31,-28 37.31,-22 43.31,-16 49.31,-16 49.31,-16 182.69,-16 182.69,-16 188.69,-16 194.69,-22 194.69,-28 194.69,-28 194.69,-40.8 194.69,-40.8 194.69,-46.8 188.69,-52.8 182.69,-52.8"/>
<text xml:space="preserve" text-anchor="middle" x="116" y="-38" font-family="Helvetica,sans-Serif" font-size="12.00">Weather Service Provider</text>
<text xml:space="preserve" text-anchor="middle" x="116" y="-23.6" font-family="Helvetica,sans-Serif" font-size="12.00">(HTTP API: Open‑Meteo)</text>
</g>
<!-- mcp_server&#45;&gt;weather_api -->
<g id="edge3" class="edge">
<title>mcp_server-&gt;weather_api</title>
<path fill="none" stroke="black" d="M49.64,-114.75C43.85,-109.84 38.58,-103.97 35.3,-97.2 30.2,-86.64 28.89,-80.62 35.3,-70.8 37.99,-66.69 41.26,-63.06 44.94,-59.85"/>
<polygon fill="black" stroke="black" points="46.95,-62.71 52.95,-53.98 42.82,-57.07 46.95,-62.71"/>
<text xml:space="preserve" text-anchor="middle" x="75.65" y="-87.3" font-family="Helvetica,sans-Serif" font-size="11.00">3. HTTP request</text>
<text xml:space="preserve" text-anchor="middle" x="75.65" y="-74.1" font-family="Helvetica,sans-Serif" font-size="11.00">(forecast, alerts)</text>
</g>
<!-- weather_api&#45;&gt;mcp_server -->
<g id="edge4" class="edge">
<title>weather_api-&gt;mcp_server</title>
<path fill="none" stroke="black" d="M119.54,-53.16C121.25,-65.92 121.85,-83.25 116,-97.2 114.65,-100.41 112.86,-103.48 110.79,-106.37"/>
<polygon fill="black" stroke="black" points="108.26,-103.93 104.42,-113.81 113.58,-108.49 108.26,-103.93"/>
<text xml:space="preserve" text-anchor="middle" x="172.37" y="-87.3" font-family="Helvetica,sans-Serif" font-size="11.00">4. HTTP response</text>
<text xml:space="preserve" text-anchor="middle" x="172.37" y="-74.1" font-family="Helvetica,sans-Serif" font-size="11.00">(JSON weather data)</text>
</g>
</g>
</svg>